<?xml version="1.0" encoding="utf-8"?>
<!-- Generator: Adobe Illustrator 15.0.2, SVG Export Plug-In . SVG Version: 6.00 Build 0)  -->
<!DOCTYPE svg PUBLIC "-//W3C//DTD SVG 1.1//EN" "http://www.w3.org/Graphics/SVG/1.1/DTD/svg11.dtd">
<svg version="1.1" id="Layer_1" xmlns="http://www.w3.org/2000/svg" xmlns:xlink="http://www.w3.org/1999/xlink" x="0px" y="0px"
	 width="116px" height="116px" viewBox="0 0 116 116" enable-background="new 0 0 116 116" xml:space="preserve">
<path d="M58,0C25.967,0,0,25.968,0,58c0,32.033,25.967,58,58,58s58-25.967,58-58C116,25.968,90.033,0,58,0z M62.977,103.729V83.242
	h-9.953v20.486c-21.429-2.307-38.445-19.322-40.751-40.752h21.485v-9.953H12.272c2.306-21.428,19.322-38.445,40.751-40.75v20.742
	h9.953V12.273c21.429,2.305,38.445,19.322,40.751,40.75H83.242v9.953h20.485C101.422,84.406,84.405,101.422,62.977,103.729z"/>
</svg>
